# xmcd CD database file
#
# Track frame offsets:
#	150
#	2579
#	25800
#	46672
#	65236
#	96933
#	117026
#	130513
#	155020
#	169772
#	185035
#	205776
#
# Disc length: 3016 seconds
#
# Revision: 0
# Processed by: cddbd v1.5.1PL0 Copyright (c) Steve Scherf et al.
# Submitted via: CDex 1.51
#
DISCID=990bc60c
DTITLE=Cave In - Perfect Pitch Black
DYEAR=2005
DGENRE=Hardcore
TTITLE0=Perfect Pitch Black
TTITLE1=The World Is In Your Way
TTITLE2=Off To Ruin
TTITLE3=Trepanning
TTITLE4=Paranormal
TTITLE5=Down The Drain
TTITLE6=Droned
TTITLE7=Ataraxia
TTITLE8=Tension In The Ranks
TTITLE9=Screaming In Your Sleep
TTITLE10=Prognosis
TTITLE11=Cave In
EXTD=YEAR: 2005
EXTT0=
EXTT1=
EXTT2=
EXTT3=
EXTT4=
EXTT5=
EXTT6=
EXTT7=
EXTT8=
EXTT9=
EXTT10=
EXTT11=
PLAYORDER=
